<svg width="50" height="50" viewBox="0 0 50 50" fill="none" xmlns="http://www.w3.org/2000/svg">
<path d="M40 0H10C4.47715 0 0 4.47715 0 10V40C0 45.5228 4.47715 50 10 50H40C45.5228 50 50 45.5228 50 40V10C50 4.47715 45.5228 0 40 0Z" fill="#232323"/>
<g clip-path="url(#clip0_2040_44)">
<path d="M11.1777 38.8223L3.48189 31.1265C2.56555 30.1877 2 28.8616 2 27.5712C2 26.9725 2.33736 26.0356 2.5924 25.4996L9.69583 10.6958L11.1777 38.8223Z" fill="#01579B"/>
<path d="M37.5261 12.1777L29.8303 4.48189C29.1582 3.80538 27.7586 3 26.5738 3C25.5555 3 24.5559 3.20492 23.9107 3.5924L9.70209 10.6958L37.5261 12.1777Z" fill="#40C4FF"/>
<path d="M20.3545 48H39.0071V40.0071L25.0919 35.5641L12.3616 40.0071L20.3545 48Z" fill="#40C4FF"/>
<path d="M9.69583 34.6782C9.69583 37.0531 9.99382 37.6357 11.175 38.8232L12.3589 40.008H39.0071L25.9823 25.2051L9.69583 10.6958V34.6782Z" fill="#29B6F6"/>
<path d="M33.3829 10.6958H9.69583L39.0071 40.0035H47V21.649L37.5261 12.1741C36.1945 10.8408 35.0133 10.6958 33.3829 10.6958Z" fill="#01579B"/>
<path opacity="0.2" d="M11.4748 39.1167C10.2909 37.9292 9.9965 36.7578 9.9965 34.6782V10.9929L9.70209 10.6958V34.6782C9.70209 36.7587 9.70209 37.335 11.4748 39.1176L12.3616 40.0044L11.4748 39.1167Z" fill="white"/>
<path opacity="0.2" d="M46.7056 21.3546V39.7091H38.7127L39.0071 40.0071H47V21.649L46.7056 21.3546Z" fill="#263238"/>
<path opacity="0.2" d="M37.5261 12.1777C36.0594 10.7084 34.8585 10.6958 33.0885 10.6958H9.70209L9.9965 10.9902H33.0885C33.9717 10.9902 36.2017 10.8417 37.5279 12.175L37.5261 12.1777Z" fill="white"/>
<path opacity="0.2" d="M46.7056 21.3545L37.5261 12.1777L29.8303 4.48189C29.1582 3.80538 27.7586 3 26.5738 3C25.5555 3 24.5559 3.20492 23.9107 3.5924L9.70209 10.6958L2.59508 25.4996C2.34094 26.0392 2 26.9752 2 27.5712C2 28.8642 2.56913 30.1842 3.47831 31.1238L10.5755 38.1681C10.7643 38.3971 10.9654 38.6158 11.1777 38.8232L11.4721 39.1176L12.358 40.0044L20.0539 47.7002L20.3483 47.9946H38.9972V40.0035H46.9902V21.649L46.7056 21.3545Z" fill="url(#paint0_radial_2040_44)"/>
</g>
<defs>
<radialGradient id="paint0_radial_2040_44" cx="0" cy="0" r="1" gradientUnits="userSpaceOnUse" gradientTransform="translate(24.4987 25.4978) scale(22.4969 22.4969)">
<stop stop-color="white" stop-opacity="0.1"/>
<stop offset="1" stop-color="white" stop-opacity="0"/>
</radialGradient>
<clipPath id="clip0_2040_44">
<rect width="45" height="45" fill="white" transform="translate(2 3)"/>
</clipPath>
</defs>
</svg>
